<svg xmlns="http://www.w3.org/2000/svg" width="56" height="56" viewBox="0 0 56 56">
    <g fill="none" fill-rule="evenodd">
        <circle cx="28" cy="28" r="28"/>
        <path fill="#DEDEDE" fill-rule="nonzero" d="M48.267 15.144l-5.202 3.004c-3.223-4.938-8.52-7.809-14.065-8.122V4.018c7.618.325 14.925 4.27 19.267 11.126zm1 1.732c3.766 7.188 3.53 15.49.002 22.25l-5.203-3.005c2.5-4.959 2.664-10.981-.001-16.241l5.202-3.004zM7.733 40.856l5.202-3.004c3.223 4.938 8.52 7.809 14.065 8.122v6.008c-7.618-.325-14.925-4.27-19.267-11.126zM29 51.984v-6.008c2.731-.15 5.47-.926 8-2.388a17.924 17.924 0 0 0 6.068-5.734l5.203 3.004A23.896 23.896 0 0 1 40 48.785a23.896 23.896 0 0 1-11 3.2z"/>
        <path fill="#4A4A4A" d="M12.934 37.853c2.73 4.167 7.144 7.133 12.274 7.932V43l7 6-7 6v-3.16c-7.352-.852-13.691-5.027-17.477-10.983l5.203-3.004zm-6.2 1.27c-3.767-7.187-3.53-15.488-.003-22.248l5.203 3.004c-2.5 4.959-2.664 10.981.001 16.241l-5.202 3.004zM27 4.017v6.008c-2.731.15-5.47.926-8 2.388a17.924 17.924 0 0 0-6.068 5.734L7.73 15.142A23.896 23.896 0 0 1 16 7.215a23.896 23.896 0 0 1 11-3.2z"/>
    </g>
</svg>
