<svg xmlns="http://www.w3.org/2000/svg" width="32" height="32" viewBox="0 0 32 32">
    <path fill="#000" fill-rule="nonzero" d="M27.877 9.143c3.787 6.56 1.54 14.947-5.02 18.734-6.56 3.787-14.947 1.54-18.734-5.02-3.787-6.56-1.54-14.947 5.02-18.734l1.714 2.97c-4.92 2.84-6.605 9.13-3.765 14.05 2.84 4.92 9.131 6.605 14.05 3.765 4.92-2.84 6.606-9.131 3.766-14.05a10.283 10.283 0 0 0-7.312-5.02v1.59l-4-3.428 4-3.429v1.807c1.9.22 3.68.828 5.262 1.743a13.627 13.627 0 0 1 5.019 5.022zm-14.544 12.19V10.667l8 5.333-8 5.333z"/>
</svg>
