<?xml version="1.0" encoding="UTF-8" standalone="no"?>
<svg
   xmlns:dc="http://purl.org/dc/elements/1.1/"
   xmlns:cc="http://creativecommons.org/ns#"
   xmlns:rdf="http://www.w3.org/1999/02/22-rdf-syntax-ns#"
   xmlns:svg="http://www.w3.org/2000/svg"
   xmlns="http://www.w3.org/2000/svg"
   xmlns:sodipodi="http://sodipodi.sourceforge.net/DTD/sodipodi-0.dtd"
   xmlns:inkscape="http://www.inkscape.org/namespaces/inkscape"
   enable-background="new"
   width="1in"
   height="1in"
   viewBox="0 0 1 1"
   version="1.1"
   id="svg827"
   sodipodi:docname="player6-start.svg"
   inkscape:version="0.92.2 2405546, 2018-03-11">
  <sodipodi:namedview
     pagecolor="#ffffff"
     bordercolor="#666666"
     borderopacity="1"
     objecttolerance="10"
     gridtolerance="10"
     guidetolerance="10"
     inkscape:pageopacity="0"
     inkscape:pageshadow="2"
     inkscape:window-width="1914"
     inkscape:window-height="952"
     id="namedview890"
     showgrid="false"
     inkscape:zoom="7.5104167"
     inkscape:cx="48"
     inkscape:cy="48"
     inkscape:window-x="0"
     inkscape:window-y="96"
     inkscape:window-maximized="0"
     inkscape:current-layer="svg827" />
  <defs
     id="defs821" />
  <metadata
     id="metadata824">
    <rdf:RDF>
      <cc:Work
         rdf:about="">
        <dc:format>image/svg+xml</dc:format>
        <dc:type
           rdf:resource="http://purl.org/dc/dcmitype/StillImage" />
        <dc:title />
      </cc:Work>
    </rdf:RDF>
  </metadata>
  <g
     style="display:inline"
     id="g1521">
    <path
       id="path1515"
       transform="scale(0.01041667)"
       style="display:inline;fill:#d983c7;fill-opacity:1;stroke:none;stroke-width:0.6577968px;stroke-linecap:butt;stroke-linejoin:miter;stroke-opacity:1"
       d="m 18.044922,48.001953 v 4.044922 L 23.25,52.017578 V 66 h 6.275391 v 11.392578 c 0,0.572319 0.266427,1.078198 0.68164,1.429688 l 5.546875,-9.609375 V 66 h 1.855469 l 1.732422,-3 h -3.587891 v -6.746094 c 0,-1.064678 -0.903515,-1.919922 -2.02539,-1.919922 h -2.179688 c -1.121876,0 -2.023437,0.855244 -2.023437,1.919922 V 63 H 26.25 V 52 l 4.117188,-0.02344 v -3.974609 z m 17.785156,0 c 2.32509,1.217557 4.36253,2.650959 5.458984,4.017578 0.890824,-0.865208 2.883406,-1.892737 4.236329,-2.294922 0.349171,0.26136 0.687413,0.527491 1.021484,0.794922 L 48,48.001953 Z M 32.716797,21.529297 c -8.44237,5.906149 -13.851563,10.876953 -13.851563,10.876953 4.838479,4.837154 8.907674,7.876923 12.66211,9.103516 0,0 3.418865,-3.882788 8.455078,-7.394532 z M 18.044922,34.800781 V 48 l 12.322266,0.002 v -2.246094 c 1.814062,0.536225 3.717262,1.331978 5.46289,2.246094 H 48 l -5.089844,-8.816406 c -3.967708,2.549538 -7.919922,4.373047 -7.919922,4.373047 l -4.628906,0.02539 C 25.847843,41.800405 21.509951,38.402556 18.044922,34.800781 Z M 46.552734,12.908203 c -5.134448,2.798097 -9.823655,5.814165 -13.835937,8.621094 l 7.265625,12.585937 c 1.978215,-1.379406 4.198296,-2.702206 6.570312,-3.708984 z m 2.894532,0 V 30.40625 c 2.372016,1.006778 4.592097,2.329578 6.570312,3.708984 L 63.283203,21.529297 C 59.270921,18.722368 54.581717,15.7063 49.447266,12.908203 Z M 48,35.328125 c -1.446449,1.380847 -3.26985,2.687945 -5.089844,3.857422 L 48,48.001953 53.089844,39.185547 C 51.269961,38.015982 49.446148,36.708683 48,35.328125 Z M 63.283203,21.529297 56.017578,34.115234 c 5.036213,3.511744 8.455078,7.394532 8.455078,7.394532 3.754438,-1.226593 7.823631,-4.266362 12.66211,-9.103516 0,0 -5.409193,-4.970804 -13.851563,-10.876953 z m 14.671875,13.271484 c -3.465028,3.601774 -7.802903,6.999621 -12.316406,8.783203 l -4.626953,-0.02344 c 0,0 -3.95321,-1.824501 -7.921875,-4.375 L 48,48.001953 h 12.160156 c 1.7476,-0.917204 3.653602,-1.715723 5.472656,-2.251953 v 2.251953 H 77.955078 Z M 48,48.001953 l 1.453125,2.517578 c 0.334069,-0.267431 0.672297,-0.533563 1.021484,-0.794922 1.35298,0.402203 3.345496,1.429679 4.236329,2.294922 1.096589,-1.366793 3.129074,-2.79988 5.449218,-4.017578 z m 17.632812,0 v 3.974609 L 69.75,52 v 11 h -3.376953 v -6.746094 c 0,-1.064682 -0.875853,-1.919922 -1.964844,-1.919922 h -2.298828 c -1.088991,0 -1.964844,0.85524 -1.964844,1.919922 V 63 h -3.486328 l 1.732422,3 h 1.753906 v 3.037109 l 5.623047,9.740235 c 0.372123,-0.349318 0.605469,-0.838084 0.605469,-1.384766 V 66 H 72.75 V 52.017578 l 5.205078,0.0293 v -4.044922 z m -17.632812,0 -1.453125,2.517578 c 0.512161,0.409996 1.006544,0.825624 1.453125,1.251953 0.446583,-0.426328 0.940967,-0.841957 1.453125,-1.251953 z m -0.515625,8.488281 c -2.272728,0 -4.101563,1.831219 -4.101563,4.105469 V 71.8125 H 41.25 V 63 h -1.908203 l -1.732422,3 H 38.25 v 9 h 5.132812 v 8.1875 c 3e-6,2.27425 1.828835,4.105469 4.101563,4.105469 h 1.091797 c 2.272728,0 4.103515,-1.831219 4.103516,-4.105469 V 75 H 57.75 v -9 h 0.640625 L 56.658203,63 H 54.75 v 8.8125 H 52.679688 V 60.595703 c 0,-2.27425 -1.830788,-4.105469 -4.103516,-4.105469 z m 12.660156,12.546875 v 8.355469 c 0,1.064682 0.875853,1.921875 1.964844,1.921875 h 2.298828 c 0.529828,0 1.006776,-0.206118 1.359375,-0.537109 z m -24.390625,0.175782 -5.546875,9.609375 c 0.357204,0.302383 0.822986,0.492187 1.341797,0.492187 h 2.179688 c 1.121875,0 2.02539,-0.857197 2.02539,-1.921875 z" />
  </g>
</svg>
