<?xml version="1.0" encoding="UTF-8" standalone="no"?>
<svg
   xmlns:dc="http://purl.org/dc/elements/1.1/"
   xmlns:cc="http://creativecommons.org/ns#"
   xmlns:rdf="http://www.w3.org/1999/02/22-rdf-syntax-ns#"
   xmlns:svg="http://www.w3.org/2000/svg"
   xmlns="http://www.w3.org/2000/svg"
   xmlns:sodipodi="http://sodipodi.sourceforge.net/DTD/sodipodi-0.dtd"
   xmlns:inkscape="http://www.inkscape.org/namespaces/inkscape"
   enable-background="new"
   width="1in"
   height="1in"
   viewBox="0 0 1 1"
   version="1.1"
   id="svg827"
   sodipodi:docname="player4-start.svg"
   inkscape:version="0.92.2 2405546, 2018-03-11">
  <sodipodi:namedview
     pagecolor="#ffffff"
     bordercolor="#666666"
     borderopacity="1"
     objecttolerance="10"
     gridtolerance="10"
     guidetolerance="10"
     inkscape:pageopacity="0"
     inkscape:pageshadow="2"
     inkscape:window-width="1914"
     inkscape:window-height="928"
     id="namedview1720"
     showgrid="false"
     inkscape:zoom="2.4583333"
     inkscape:cx="-49.627119"
     inkscape:cy="48"
     inkscape:window-x="0"
     inkscape:window-y="120"
     inkscape:window-maximized="0"
     inkscape:current-layer="svg827" />
  <defs
     id="defs821" />
  <metadata
     id="metadata824">
    <rdf:RDF>
      <cc:Work
         rdf:about="">
        <dc:format>image/svg+xml</dc:format>
        <dc:type
           rdf:resource="http://purl.org/dc/dcmitype/StillImage" />
        <dc:title />
      </cc:Work>
    </rdf:RDF>
  </metadata>
  <g
     id="g1822"
     style="display:inline">
    <path
       id="path1816"
       transform="scale(0.01041667)"
       style="display:inline;fill:#ffc276;fill-opacity:1;stroke:none;stroke-width:0.6577968px;stroke-linecap:butt;stroke-linejoin:miter;stroke-opacity:1"
       d="m 18.376953,48.001953 -0.04102,9.660156 H 17.0625 v 2.988282 h 1.261719 l -0.0078,1.695312 h 2.804688 v -1.695312 h 2.060547 v 8.486328 c 0,0.475167 0.384731,0.857422 0.861328,0.857422 h 3.43164 c 0.476602,0 0.859375,-0.382255 0.859375,-0.857422 V 60.650391 H 30 v -2.988282 h -1.666016 v -7.828125 c 0,-0.475167 -0.382773,-0.857422 -0.859375,-0.857422 h -3.43164 c -0.476597,0 -0.861328,0.382255 -0.861328,0.857422 v 7.828125 h -2.060547 v -9.660156 z m 10.986328,0 V 56.625 h 3.587891 v 4.144531 c 0,0.475167 0.384731,0.857422 0.861328,0.857422 h 2.083984 c 0.476601,0 0.861332,-0.382255 0.861328,-0.857422 V 56.625 h 3.449219 V 61.5 l 2.246094,-3.890625 v -3.597656 l -2.246094,-0.894531 v 0.607421 h -3.449219 v -4.070312 c 0,-0.475167 -0.384727,-0.857422 -0.861328,-0.857422 H 33.8125 c -0.476597,0 -0.861328,0.382255 -0.861328,0.857422 v 4.070312 h -1.001953 v -5.722656 z m 10.060547,0 5.828125,4.759766 1.884766,-3.265625 -1.804688,-1.494141 z M 33.871094,23.527344 c -5.867859,3.140772 -11.58429,5.708783 -15.427735,8.90625 L 18.376953,48 h 2.744141 v -0.01758 l 8.242187,-4.826172 v 4.845703 h 2.585938 v -6.105469 l 7.474609,6.105469 h 5.908203 l -10.109375,-8.365234 4.716797,-1.382813 c 0.550313,-0.105759 1.363641,-0.201338 2.267578,-0.287109 l -4.882812,-8.457031 -2.085938,0.722656 0.0059,-4.324219 z M 48,13.724609 c -3.084819,2.989971 -6.64181,5.387312 -10.144531,7.470703 v 8.13086 l -0.53125,0.183594 4.882812,8.457031 c 1.568793,-0.148856 3.509229,-0.25855 5.53125,-0.271485 2.173537,-0.0139 4.342918,0.08527 6.066407,0.251954 l 4.867187,-8.429688 -0.529297,-0.183594 V 21.195312 C 54.639864,19.111911 51.084813,16.714579 48,13.724609 Z m -12.75,9.074219 c -0.463333,0.255407 -0.916742,0.481142 -1.378906,0.728516 l 1.373047,2.380859 z m 25.498047,0 0.0059,3.111328 1.375,-2.380859 c -0.462946,-0.24778 -0.916738,-0.47463 -1.380859,-0.730469 z m 1.380859,0.730469 -1.375,2.380859 0.0078,4.332032 -2.089844,-0.72461 -4.867187,8.429688 c 0.832531,0.08052 1.59187,0.171961 2.138671,0.283203 l 4.833985,1.412109 -10.105469,8.359375 h 5.90625 l 7.472656,-6.103515 -0.002,6.103515 h 2.587891 V 43.15625 l 8.240234,4.826172 v 0.01953 h 2.744141 L 77.554624,32.433593 C 73.711692,29.236554 67.995914,26.669494 62.128842,23.529296 Z M 50.671875,48.001953 48.863281,49.498047 50.75,52.763672 56.578125,48.001953 Z m 13.376953,0 v 5.722656 h -0.966797 v -4.070312 c 0,-0.475167 -0.382778,-0.857422 -0.859375,-0.857422 h -2.085937 c -0.476597,0 -0.859375,0.382255 -0.859375,0.857422 v 4.070312 h -3.484375 v -0.607421 l -2.246094,0.894531 v 3.597656 L 55.792969,61.5 v -4.875 h 3.484375 v 4.144531 c 0,0.475167 0.382778,0.857422 0.859375,0.857422 h 2.085937 c 0.476597,0 0.859375,-0.382255 0.859375,-0.857422 V 56.625 h 3.554688 v -8.623047 z m 10.828125,0 v 9.660156 h -2.011719 v -7.828125 c 0,-0.475167 -0.384731,-0.857422 -0.861328,-0.857422 h -3.43164 c -0.476601,0 -0.859375,0.382255 -0.859375,0.857422 v 7.828125 H 66 v 2.988282 h 1.712891 v 8.486328 c 0,0.475167 0.382774,0.857422 0.859375,0.857422 h 3.43164 c 0.476597,0 0.861328,-0.382255 0.861328,-0.857422 v -8.486328 h 2.011719 v 1.695312 h 2.806641 l -0.0078,-1.695312 H 78.9375 v -2.988282 h -1.273438 l -0.04297,-9.660156 z m -27.740234,1.494141 -1.884766,3.265625 0.888672,0.726562 v 29.06836 h 3.722656 V 53.488281 L 50.75,52.763672 48.863281,49.498047 48.001953,50.210938 Z M 42.453125,57.609375 40.207031,61.5 v 0.126953 h 2.246094 z m 11.09375,0 v 4.017578 h 2.246094 V 61.5 Z" />
  </g>
</svg>
