<?xml version="1.0" encoding="UTF-8" standalone="no"?>
<?xml version="1.0" encoding="UTF-8" standalone="no"?><svg
   xmlns:dc="http://purl.org/dc/elements/1.1/"
   xmlns:cc="http://creativecommons.org/ns#"
   xmlns:rdf="http://www.w3.org/1999/02/22-rdf-syntax-ns#"
   xmlns:svg="http://www.w3.org/2000/svg"
   xmlns="http://www.w3.org/2000/svg"
   xmlns:sodipodi="http://sodipodi.sourceforge.net/DTD/sodipodi-0.dtd"
   xmlns:inkscape="http://www.inkscape.org/namespaces/inkscape"
   enable-background="new"
   width="1in"
   height="1in"
   viewBox="0 0 1 1"
   version="1.1"
   id="svg827"
   sodipodi:docname="player3-start.svg"
   inkscape:version="0.92.2 2405546, 2018-03-11">
  <sodipodi:namedview
     pagecolor="#ffffff"
     bordercolor="#666666"
     borderopacity="1"
     objecttolerance="10"
     gridtolerance="10"
     guidetolerance="10"
     inkscape:pageopacity="0"
     inkscape:pageshadow="2"
     inkscape:window-width="1914"
     inkscape:window-height="952"
     id="namedview1099"
     showgrid="false"
     inkscape:zoom="2.4583333"
     inkscape:cx="-49.627119"
     inkscape:cy="48"
     inkscape:window-x="0"
     inkscape:window-y="96"
     inkscape:window-maximized="0"
     inkscape:current-layer="svg827" />
  <defs
     id="defs821" />
  <metadata
     id="metadata824">
    <rdf:RDF>
      <cc:Work
         rdf:about="">
        <dc:format>image/svg+xml</dc:format>
        <dc:type
           rdf:resource="http://purl.org/dc/dcmitype/StillImage" />
        <dc:title />
      </cc:Work>
    </rdf:RDF>
  </metadata>
  <g
     id="g1444"
     style="display:inline">
    <path
       id="path1750"
       transform="scale(0.01041667)"
       style="display:inline;fill:#aba5a6;fill-opacity:1;stroke:none;stroke-width:0.6577968px;stroke-linecap:butt;stroke-linejoin:miter;stroke-opacity:1"
       d="m 48,48.001953 0.335938,0.582031 1.785156,3.091797 6.320312,10.949219 2.273438,3.9375 1.861328,3.224609 c 0.444402,-0.443151 0.888697,-0.889277 1.332031,-1.375 V 66.5625 h 2.375 v 4.605469 c 0,1.073254 0.864246,1.9375 1.9375,1.9375 h 1.011719 c 1.073254,0 1.935547,-0.864246 1.935547,-1.9375 V 66.5625 H 70.875 V 62.625 h -1.707031 v -4.710938 c 0,-1.073254 -0.862293,-1.9375 -1.935547,-1.9375 h -1.011719 c -1.073254,0 -1.9375,0.864246 -1.9375,1.9375 V 62.625 h -2.375 v -3.378906 l -8.787109,-4.884766 -0.392578,-3.535156 -2.605469,-2.515625 v -0.308594 h -0.320313 -1.466796 z m 4.210938,0 1.099609,0.771485 0.519531,-0.771485 z m 13.714843,0 -9.662109,5.664063 4.134766,2.394531 13.832031,-8.058594 z m 12.978516,0 -8.542969,5.152344 2.019531,3.039062 3.230469,-1.576171 -0.166016,15.322265 3.8125,-10.693359 V 48.001953 Z M 65.025391,18.509766 55.15625,35.607422 c 1.601549,1.749672 3.075324,3.65884 3.517578,4.544922 h 7.623047 c 1.524758,-1.527566 3.811731,-4.583757 6.861328,-6.111328 l 1.839844,2.042968 -0.134766,6.679688 -8.9375,5.238281 h 8.304688 l 4.851562,-2.826172 V 34.041016 l -5.160156,-7.636719 c -1.18042,-2.365156 -4.610945,-5.135675 -8.896484,-7.894531 z m -13.375,23.169922 -1.314453,2.27539 V 46.6875 l 1.875,1.314453 h 1.61914 l 0.472656,-0.703125 -2.21289,-1.5 0.02539,-4.11914 z M 50.125,44.322266 48.644531,46.884766 48.335938,47.419922 48,48.001953 h 0.335938 1.466796 0.320313 z m 29.132812,3.466796 -0.353515,0.212891 h 0.353515 z m -33.40039,-38.1894526 0.01563,34.7187496 1.482422,2.566407 0.30664,0.53125 L 48,48.001953 48.335938,47.419922 48.644531,46.884766 50.125,44.322266 50.140625,9.5996094 H 48.335938 V 46.585938 L 48,46.261719 47.662109,46.587891 V 9.5996094 Z M 44.1875,11.128906 c -4.427031,2.217561 -9.194784,4.794166 -13.212891,7.38086 l 9.869141,17.097656 c 1.159468,-1.266706 2.383268,-2.452254 3.34375,-3.09375 z m 7.625,0 v 21.384766 c 0.960482,0.641496 2.184282,1.827044 3.34375,3.09375 L 65.025391,18.509766 C 61.007285,15.923073 56.239532,13.346469 51.8125,11.128906 Z m -7.462891,30.550782 1.3125,2.273437 v -2.273437 z m 5.986329,0 v 2.27539 l 1.314453,-2.27539 z m -33.59375,6.322265 v 11.244141 l 3.8125,10.693359 -0.166016,-15.322265 3.230469,1.576171 2.019531,-3.039062 -8.542969,-5.152344 z m 5.027343,0 13.832031,8.058594 4.132813,-2.394531 -9.662109,-5.664063 z m 20.400391,0 0.517578,0.771485 1.099609,-0.771485 z m 3.705078,0 V 48.3125 l -2.603516,2.513672 -0.390625,3.535156 -8.791015,4.884766 V 62.625 h -1.921875 v -4.804688 c 0,-1.072993 -0.871343,-1.937497 -1.955078,-1.9375 h -1.019532 c -1.083735,5e-6 -1.957031,0.864507 -1.957031,1.9375 V 62.625 H 25.125 v 3.9375 h 2.111328 v 4.507812 c 0,1.072998 0.873296,1.935547 1.957031,1.935547 h 1.019532 c 1.083735,0 1.955078,-0.862549 1.955078,-1.935547 V 66.5625 h 1.921875 v 1.849609 c 0.443015,0.485384 0.886021,0.938011 1.330078,1.378907 L 37.283203,66.5625 h 0.002 L 39.558641,62.625 45.877,51.679688 45.93169,51.583988 47.662158,48.587895 48,48.001953 H 47.662109 46.197266 Z M 30.974609,18.509766 c -4.285539,2.758856 -7.716064,5.529375 -8.896484,7.894531 l 0.763672,7.636719 c 3.049597,1.527571 5.33657,4.583762 6.861328,6.111328 h 7.623047 c 0.442254,-0.886082 1.916029,-2.79525 3.517578,-4.544922 z m -8.896484,7.894531 -5.160156,7.638672 V 45.175781 L 21.767578,48 l 8.302734,0.002 -8.933593,-5.238281 -0.134766,-6.679688 1.837891,-2.041015 z m 21.804687,15.275391 0.02539,4.11914 -2.210937,1.5 0.472656,0.703125 h 1.617187 l 1.875,-1.314453 v -2.734375 l -1.3125,-2.273437 z m 1.990235,2.638671 0.002,3.683594 H 46.197266 47.662109 48 l -0.337891,-0.585937 -0.30664,-0.53125 z M 16.742188,47.789062 V 48 H 17.09375 Z M 48,48.001953 47.662109,48.587891 45.876953,51.679688 35.419922,69.791016 c 0.221047,0.219472 0.44291,0.440537 0.664062,0.652343 v 1.521485 l -4.095703,4.849609 4.095703,-2.378906 v 3.697265 c 0,0.819749 0.658201,1.480469 1.476563,1.480469 h 1.931641 c 0.818303,0 1.476562,-0.66073 1.476562,-1.480469 v -3.828124 c 0.566498,0.349146 1.130986,0.669282 1.693359,0.949218 v 5.378906 L 48,85.214844 53.335938,80.632812 v -5.378906 c 0.678963,-0.337977 1.362077,-0.73075 2.046874,-1.169922 v 4.144532 c 0,0.819744 0.658201,1.480468 1.476563,1.480468 h 1.929687 c 0.818308,0 1.476563,-0.660734 1.476563,-1.480468 v -3.587891 l 3.744141,2.173828 -3.744141,-4.433594 v -2.273437 c 0.103591,-0.101678 0.206982,-0.217039 0.310547,-0.320313 L 50.121094,51.675781 48.335938,48.583984 Z" />
  </g>
</svg>
