<?xml version="1.0" encoding="UTF-8" standalone="no"?>
<svg
   xmlns:dc="http://purl.org/dc/elements/1.1/"
   xmlns:cc="http://creativecommons.org/ns#"
   xmlns:rdf="http://www.w3.org/1999/02/22-rdf-syntax-ns#"
   xmlns:svg="http://www.w3.org/2000/svg"
   xmlns="http://www.w3.org/2000/svg"
   id="svg827"
   version="1.1"
   viewBox="0 0 1 1"
   height="1in"
   width="1in">
  <defs
     id="defs821" />
  <metadata
     id="metadata824">
    <rdf:RDF>
      <cc:Work
         rdf:about="">
        <dc:format>image/svg+xml</dc:format>
        <dc:type
           rdf:resource="http://purl.org/dc/dcmitype/StillImage" />
        <dc:title></dc:title>
      </cc:Work>
    </rdf:RDF>
  </metadata>
  <g
     transform="translate(0,-271.59999)"
     id="layer1">
    <g
       transform="matrix(0.75628053,0,0,0.75628053,0.71088449,66.797383)"
       id="g1510">
      <path
         id="path14916"
         d="M -0.48716945,271.7696 H -0.0705028"
         style="display:inline;opacity:1;fill:#1b2c6b;fill-opacity:1;stroke:#121b4a;stroke-width:0.02916667;stroke-linecap:butt;stroke-linejoin:miter;stroke-miterlimit:4;stroke-dasharray:none;stroke-opacity:1" />
      <path
         id="path14918"
         d="m -0.27883611,270.94669 c -0.20833335,0.16666 -0.23958333,0.20833 -0.41667476,0.30209 v 0.29164 l 0.19792476,2e-5 v -0.18748 c 0,0 0.11457523,-0.0625 0.21875,-0.13544 0.10417476,0.0729 0.21875001,0.14585 0.21875001,0.14585 v 0.17707 l 0.19790857,-2e-5 v -0.29164 c -0.17707524,-0.0938 -0.20832526,-0.13543 -0.41665858,-0.30209 z"
         style="display:inline;opacity:1;fill:#0065ad;fill-opacity:1;stroke:#121b4a;stroke-width:0.01875;stroke-miterlimit:4;stroke-dasharray:none;stroke-dashoffset:0;stroke-opacity:1" />
      <path
         id="path14924"
         d="m -0.44551087,271.43626 7.13e-6,0.37501 h 0.0729167 l 1.354e-5,-0.24997 c 0.0163671,-0.005 0.0555673,-0.008 0.0937297,-0.008 0.0381623,-2.6e-4 0.0773625,0.002 0.0937297,0.008 l 2.812e-5,0.24997 h 0.0729167 l -7.13e-6,-0.37501 c 0,0 -0.0624929,-0.0729 -0.16665955,-0.14582 -0.10416667,0.0729 -0.16667476,0.14582 -0.16667491,0.14582 z"
         style="display:inline;opacity:1;fill:#1b2c6b;fill-opacity:1;stroke:#121b4a;stroke-width:0.01873958;stroke-miterlimit:4;stroke-dasharray:none;stroke-dashoffset:0;stroke-opacity:1" />
      <path
         id="path14926"
         d="m -0.60176087,271.57169 -2.083e-5,0.0417 h 0.072937 v 0.0729 h 0.0416463 l 2.083e-5,-0.11459 z"
         style="display:inline;opacity:1;fill:#1b2c6b;fill-opacity:1;stroke:#121b4a;stroke-width:0.01875;stroke-miterlimit:4;stroke-dasharray:none;stroke-dashoffset:0;stroke-opacity:1" />
      <path
         id="path14928"
         d="m -0.07051087,271.57169 2.083e-5,0.11459 h 0.0416463 v -0.0729 h 0.072937 l -2.084e-5,-0.0417 z"
         style="display:inline;opacity:1;fill:#1b2c6b;fill-opacity:1;stroke:#121b4a;stroke-width:0.01875;stroke-miterlimit:4;stroke-dasharray:none;stroke-dashoffset:0;stroke-opacity:1" />
      <path
         id="path15000"
         d="m -0.27884421,271.29044 c -0.10416666,0.0729 -0.16666666,0.14582 -0.16666666,0.14582 v 0.0313 l 0.0729248,-10e-6 c 0.0208333,-0.0312 0.0520833,-0.0625 0.09375,-0.0625 0.0416667,0 0.0729167,0.0312 0.09375,0.0625 l 0.0729086,10e-6 v -0.0313 c 0,0 -0.0625,-0.0729 -0.16666674,-0.14582 z"
         style="display:inline;opacity:1;fill:#c7e8f5;fill-opacity:1;stroke:#121b4a;stroke-width:0.01875;stroke-miterlimit:4;stroke-dasharray:none;stroke-dashoffset:0;stroke-opacity:1" />
      <rect
         style="display:inline;opacity:1;fill:#0065ad;fill-opacity:1;stroke:#121b4a;stroke-width:0.01862205;stroke-miterlimit:4;stroke-dasharray:none;stroke-dashoffset:0;stroke-opacity:1"
         id="rect1036"
         width="0.10416666"
         height="0.36458334"
         x="-0.33091944"
         y="271.61856"
         ry="0.031496063"
         rx="0.031496063" />
      <rect
         style="display:inline;opacity:1;fill:none;fill-opacity:1;stroke:#121b4a;stroke-width:0.01862205;stroke-miterlimit:4;stroke-dasharray:none;stroke-dashoffset:0;stroke-opacity:1"
         id="rect1038"
         width="0.10416666"
         height="0.30208334"
         x="-0.33091944"
         y="271.64981"
         rx="0.027559055"
         ry="0.027559055" />
      <rect
         style="display:inline;opacity:1;fill:none;fill-opacity:1;stroke:#1b2c6b;stroke-width:0.01862205;stroke-miterlimit:4;stroke-dasharray:none;stroke-dashoffset:0;stroke-opacity:1"
         id="rect1040"
         width="0.10416666"
         height="0.21875"
         x="-0.33091944"
         y="271.69147"
         rx="0.023622049"
         ry="0.023622049" />
      <rect
         style="display:inline;opacity:1;fill:none;fill-opacity:1;stroke:#1b2c6b;stroke-width:0.01862205;stroke-miterlimit:4;stroke-dasharray:none;stroke-dashoffset:0;stroke-opacity:1"
         id="rect1042"
         width="0.1041666"
         height="0.11458328"
         x="-0.33091944"
         y="271.74356"
         rx="0.019685039"
         ry="0.019685039" />
      <rect
         style="display:inline;opacity:1;fill:none;fill-opacity:1;stroke:#0094d1;stroke-width:0.01862205;stroke-miterlimit:4;stroke-dasharray:none;stroke-dashoffset:0;stroke-opacity:1"
         id="rect1044"
         width="0.083333552"
         height="0.010416642"
         x="-0.32050276"
         y="271.79565"
         rx="0.011811025"
         ry="0.0042876261" />
      <path
         style="display:inline;opacity:1;fill:#1b2c6b;fill-opacity:1;stroke:none;stroke-width:0.01875;stroke-miterlimit:4;stroke-dasharray:none;stroke-dashoffset:0;stroke-opacity:1"
         d="m -0.2788442,271.21753 c 0,0 -0.14948503,0.0686 -0.22964917,0.0722 -0.0637528,0.003 -0.1870175,-0.041 -0.1870175,-0.041 -0.006436,0.003 0.006854,-0.004 0,0 v 0.29164 l 0.19791667,2e-5 v -0.18748 c 0,0 0.006615,-0.004 0.0103353,-0.006 z"
         id="path1553" />
      <path
         style="display:inline;fill:#1b2c6b;fill-opacity:1;stroke:none;stroke-width:0.01041667px;stroke-linecap:butt;stroke-linejoin:miter;stroke-opacity:1"
         d="m -0.27883611,270.94669 -0.0807437,0.0654 c 0.0375853,-0.004 0.0626381,-2.5e-4 0.0807435,0.0767 z"
         id="path1581" />
      <path
         style="display:inline;fill:#0094d1;fill-opacity:1;stroke:none;stroke-width:0.01041667px;stroke-linecap:butt;stroke-linejoin:miter;stroke-opacity:1"
         d="m -0.2788442,270.94669 v 0.27084 l 0.21875,0.14585 0.19791667,-0.1146 c -0.17707525,-0.0938 -0.20833337,-0.13542 -0.41666667,-0.30209 z"
         id="path1585" />
      <path
         style="color:#000000;font-style:normal;font-variant:normal;font-weight:normal;font-stretch:normal;font-size:medium;line-height:normal;font-family:sans-serif;font-variant-ligatures:normal;font-variant-position:normal;font-variant-caps:normal;font-variant-numeric:normal;font-variant-alternates:normal;font-feature-settings:normal;text-indent:0;text-align:start;text-decoration:none;text-decoration-line:none;text-decoration-style:solid;text-decoration-color:#000000;letter-spacing:normal;word-spacing:normal;text-transform:none;writing-mode:lr-tb;direction:ltr;text-orientation:mixed;dominant-baseline:auto;baseline-shift:baseline;text-anchor:start;white-space:normal;shape-padding:0;clip-rule:nonzero;display:inline;overflow:visible;visibility:visible;opacity:1;isolation:auto;mix-blend-mode:normal;color-interpolation:sRGB;color-interpolation-filters:linearRGB;solid-color:#000000;solid-opacity:1;vector-effect:none;fill:#0094d1;fill-opacity:1;fill-rule:nonzero;stroke:none;stroke-width:0.01041667px;stroke-linecap:butt;stroke-linejoin:miter;stroke-miterlimit:4;stroke-dasharray:none;stroke-dashoffset:0;stroke-opacity:1;color-rendering:auto;image-rendering:auto;shape-rendering:auto;text-rendering:auto;enable-background:accumulate"
         d="m -0.67600855,271.2406 c -0.0195023,0.008 -0.0219107,0.0128 -0.0219107,0.0128 l 0.19792691,0.10412 c 0,0 0.002406,-0.005 -0.17601618,-0.11693 z"
         id="path1767" />
      <path
         style="display:inline;fill:none;stroke:#0094d1;stroke-width:0.01862205;stroke-linecap:round;stroke-linejoin:miter;stroke-miterlimit:4;stroke-dasharray:none;stroke-opacity:1"
         d="m -0.24758611,271.67585 v 0.27084"
         id="path1149" />
      <circle
         style="display:inline;opacity:1;fill:#0094d1;fill-opacity:1;stroke:#0094d1;stroke-width:0.01043307;stroke-linecap:round;stroke-miterlimit:4;stroke-dasharray:none;stroke-dashoffset:0;stroke-opacity:1"
         id="path1151"
         cx="-0.25800276"
         cy="271.64459"
         r="0.005208333" />
      <circle
         r="0.012574028"
         cy="271.43008"
         cx="-0.17053512"
         id="circle1034"
         style="display:inline;opacity:1;fill:#ffffff;fill-opacity:1;stroke:none;stroke-width:0.02518766;stroke-linecap:round;stroke-miterlimit:4;stroke-dasharray:none;stroke-dashoffset:0;stroke-opacity:1" />
      <path
         style="display:inline;opacity:1;fill:#ffffff;fill-opacity:1;stroke:none;stroke-width:0.02515748;stroke-linecap:round;stroke-miterlimit:4;stroke-dasharray:none;stroke-dashoffset:0;stroke-opacity:1"
         d="m -0.27884421,271.29044 c -0.0212857,0.0149 -0.0403348,0.0297 -0.057963,0.0439 a 0.09544978,0.10093792 0 0 0 0.0391235,0.0729 c 0.006033,-10e-4 0.0122918,-0.002 0.0188395,-0.002 0.0209156,0 0.0392046,0.008 0.0548706,0.0197 a 0.09544978,0.10093792 0 0 0 0.0600993,-0.0409 c -0.0282716,-0.0265 -0.0669346,-0.0598 -0.11496988,-0.0934 z"
         id="path1153" />
      <path
         style="display:inline;opacity:1;fill:none;fill-opacity:1;stroke:#121b4a;stroke-width:0.01875;stroke-miterlimit:4;stroke-dasharray:none;stroke-dashoffset:0;stroke-opacity:1"
         d="m -0.27883611,270.94669 c -0.20833334,0.16666 -0.23958334,0.20833 -0.41667476,0.30209 v 0.29164 l 0.19792476,2e-5 v -0.18748 c 0,0 0.11457524,-0.0625 0.21875,-0.13544 0.10417477,0.0729 0.21875001,0.14585 0.21875001,0.14585 v 0.17707 l 0.19790858,-2e-5 v -0.29164 c -0.17707524,-0.0938 -0.20832528,-0.13543 -0.41665859,-0.30209 z"
         id="path1560" />
      <rect
         style="display:inline;opacity:1;fill:none;fill-opacity:1;stroke:#121b4a;stroke-width:0.01862205;stroke-miterlimit:4;stroke-dasharray:none;stroke-dashoffset:0;stroke-opacity:1"
         id="rect1036-6"
         width="0.10416666"
         height="0.36458334"
         x="-0.32981378"
         y="271.61224"
         ry="0.031496063"
         rx="0.031496063" />
      <path
         id="path15000-7"
         d="m -0.27884421,271.29044 c -0.10416666,0.0729 -0.16666666,0.14582 -0.16666666,0.14582 v 0.0313 l 0.0729248,-10e-6 c 0.0208333,-0.0312 0.0520833,-0.0625 0.09375,-0.0625 0.0416667,0 0.0729167,0.0312 0.09375,0.0625 l 0.0729086,10e-6 v -0.0313 c 0,0 -0.0625,-0.0729 -0.16666674,-0.14582 z"
         style="display:inline;opacity:1;fill:none;fill-opacity:1;stroke:#121b4a;stroke-width:0.01875;stroke-miterlimit:4;stroke-dasharray:none;stroke-dashoffset:0;stroke-opacity:1" />
      <path
         id="path15002-5"
         d="m -0.27883611,271.29044 v 0.11458"
         style="display:inline;opacity:1;fill:none;stroke:#121b4a;stroke-width:0.01875;stroke-linecap:butt;stroke-linejoin:miter;stroke-miterlimit:4;stroke-dasharray:none;stroke-opacity:1" />
      <path
         id="path15006-3"
         d="m -0.18508611,271.36335 -0.0416667,0.0625"
         style="display:inline;opacity:1;fill:none;stroke:#121b4a;stroke-width:0.01875;stroke-linecap:butt;stroke-linejoin:miter;stroke-miterlimit:4;stroke-dasharray:none;stroke-opacity:1" />
      <path
         id="path15004-5"
         d="m -0.37258611,271.36335 0.0416667,0.0625"
         style="display:inline;opacity:1;fill:none;stroke:#121b4a;stroke-width:0.01875;stroke-linecap:butt;stroke-linejoin:miter;stroke-miterlimit:4;stroke-dasharray:none;stroke-opacity:1" />
    </g>
  </g>
</svg>
