<?xml version="1.0" encoding="UTF-8" standalone="no"?>
<svg
   xmlns:dc="http://purl.org/dc/elements/1.1/"
   xmlns:cc="http://creativecommons.org/ns#"
   xmlns:rdf="http://www.w3.org/1999/02/22-rdf-syntax-ns#"
   xmlns:svg="http://www.w3.org/2000/svg"
   xmlns="http://www.w3.org/2000/svg"
   enable-background="new"
   width="1in"
   height="1in"
   viewBox="0 0 1 1"
   version="1.1"
   id="svg827">
  <defs
     id="defs821" />
  <metadata
     id="metadata824">
    <rdf:RDF>
      <cc:Work
         rdf:about="">
        <dc:format>image/svg+xml</dc:format>
        <dc:type
           rdf:resource="http://purl.org/dc/dcmitype/StillImage" />
        <dc:title></dc:title>
      </cc:Work>
    </rdf:RDF>
  </metadata>
  <g
     style="display:inline"
     id="layer11">
    <g
       style="stroke-width:1.30492151"
       transform="matrix(0.76663375,0,0,0.76602561,-1.0040313,0.2110705)"
       id="g1033">
      <path
         id="path1032-6"
         d="M 2.2776871,0.43220396 V 0.60147493 H 2.074585 V 0.72256864 H 1.8491519 V 0.60147493 H 1.6460417 V 0.43220396"
         style="display:inline;opacity:1;fill:none;stroke:#220b3f;stroke-width:0.03806878;stroke-linecap:butt;stroke-linejoin:miter;stroke-miterlimit:4;stroke-dasharray:none;stroke-opacity:1" />
      <rect
         rx="0.014878245"
         ry="0.014845385"
         y="0.46329877"
         x="1.7108279"
         height="0.33971611"
         width="0.084638774"
         id="rect999-62-3"
         style="display:inline;opacity:1;fill:#854797;fill-opacity:1;stroke:#220b3f;stroke-width:0.02445444;stroke-miterlimit:4;stroke-dasharray:none;stroke-dashoffset:0;stroke-opacity:1" />
      <rect
         ry="0.016761078"
         rx="0.028617302"
         y="0.50262749"
         x="1.7114643"
         height="0.27159816"
         width="0.084061541"
         id="rect987-3-6"
         style="display:inline;opacity:1;fill:none;fill-opacity:1;stroke:#220b3f;stroke-width:0.02430031;stroke-miterlimit:4;stroke-dasharray:none;stroke-dashoffset:0;stroke-opacity:1" />
      <rect
         ry="0.028640039"
         rx="0.027435821"
         y="0.54555649"
         x="1.7114643"
         height="0.18648411"
         width="0.084061541"
         id="rect989-6-7"
         style="display:inline;opacity:1;fill:none;fill-opacity:1;stroke:#3d134f;stroke-width:0.0243003;stroke-miterlimit:4;stroke-dasharray:none;stroke-dashoffset:0;stroke-opacity:1" />
      <rect
         ry="0.025697626"
         rx="0.025677241"
         y="0.58555949"
         x="1.7112666"
         height="0.1028415"
         width="0.084259145"
         id="rect991-7-5"
         style="display:inline;opacity:1;fill:none;fill-opacity:1;stroke:#3d134f;stroke-width:0.02430031;stroke-miterlimit:4;stroke-dasharray:none;stroke-dashoffset:0;stroke-opacity:1" />
      <rect
         ry="0.0055972361"
         rx="0.015406347"
         y="0.63137823"
         x="1.7211355"
         height="0.0092265476"
         width="0.067711212"
         id="rect993-5-3"
         style="display:inline;opacity:1;fill:none;fill-opacity:1;stroke:#cd7bf3;stroke-width:0.02430031;stroke-miterlimit:4;stroke-dasharray:none;stroke-dashoffset:0;stroke-opacity:1" />
      <path
         id="path995-3-5"
         d="M 1.7700002,0.52569403 V 0.76558486"
         style="display:inline;fill:none;stroke:#cd7bf3;stroke-width:0.02430031;stroke-linecap:round;stroke-linejoin:miter;stroke-miterlimit:4;stroke-dasharray:none;stroke-opacity:1" />
      <ellipse
         cy="0.49014738"
         cx="1.7570764"
         id="circle997-5-6-8"
         style="display:inline;opacity:1;fill:#cd7bf3;fill-opacity:1;stroke:#cd7bf3;stroke-width:0.01361434;stroke-linecap:round;stroke-miterlimit:4;stroke-dasharray:none;stroke-dashoffset:0;stroke-opacity:1"
         rx="0.0042319386"
         ry="0.0046132845" />
      <rect
         rx="0.055741437"
         ry="0.055823054"
         y="0.4926286"
         x="1.899127"
         height="0.41887799"
         width="0.12631209"
         id="rect999"
         style="display:inline;opacity:1;fill:#854797;fill-opacity:1;stroke:#220b3f;stroke-width:0.02445444;stroke-miterlimit:4;stroke-dasharray:none;stroke-dashoffset:0;stroke-opacity:1" />
      <rect
         ry="0.035976674"
         rx="0.035948131"
         y="0.53503335"
         x="1.8982668"
         height="0.34101221"
         width="0.12721127"
         id="rect987"
         style="display:inline;opacity:1;fill:none;fill-opacity:1;stroke:#220b3f;stroke-width:0.02430033;stroke-miterlimit:4;stroke-dasharray:none;stroke-dashoffset:0;stroke-opacity:1" />
      <rect
         ry="0.030837154"
         rx="0.030812686"
         y="0.58206952"
         x="1.8977863"
         height="0.24693988"
         width="0.12771188"
         id="rect989"
         style="display:inline;opacity:1;fill:none;fill-opacity:1;stroke:#3d134f;stroke-width:0.02430033;stroke-miterlimit:4;stroke-dasharray:none;stroke-dashoffset:0;stroke-opacity:1" />
      <rect
         ry="0.025697626"
         rx="0.025677245"
         y="0.63073719"
         x="1.8977863"
         height="0.14535268"
         width="0.12771188"
         id="rect991"
         style="display:inline;opacity:1;fill:none;fill-opacity:1;stroke:#3d134f;stroke-width:0.02430033;stroke-miterlimit:4;stroke-dasharray:none;stroke-dashoffset:0;stroke-opacity:1" />
      <rect
         ry="0.0055972366"
         rx="0.015406347"
         y="0.69054538"
         x="1.9104177"
         height="0.02087382"
         width="0.10104995"
         id="rect993"
         style="display:inline;opacity:1;fill:#cd7bf3;fill-opacity:1;stroke:#cd7bf3;stroke-width:0.02430033;stroke-miterlimit:4;stroke-dasharray:none;stroke-dashoffset:0;stroke-opacity:1" />
      <path
         id="path995"
         d="M 1.9948814,0.564431 V 0.87016608"
         style="display:inline;fill:none;stroke:#cd7bf3;stroke-width:0.0294378;stroke-linecap:round;stroke-linejoin:miter;stroke-miterlimit:4;stroke-dasharray:none;stroke-opacity:1" />
      <ellipse
         cy="0.52915406"
         cx="1.9783219"
         id="circle997"
         style="display:inline;opacity:1;fill:#cd7bf3;fill-opacity:1;stroke:#cd7bf3;stroke-width:0.01361435;stroke-linecap:round;stroke-miterlimit:4;stroke-dasharray:none;stroke-dashoffset:0;stroke-opacity:1"
         rx="0.0083454894"
         ry="0.0078326454" />
      <rect
         style="display:inline;opacity:1;fill:#854797;fill-opacity:1;stroke:#220b3f;stroke-width:0.02445444;stroke-miterlimit:4;stroke-dasharray:none;stroke-dashoffset:0;stroke-opacity:1"
         id="rect1096"
         width="0.084638797"
         height="0.33971617"
         x="2.1268764"
         y="0.46329871"
         ry="0.014845383"
         rx="0.014878245" />
      <rect
         style="display:inline;opacity:1;fill:none;fill-opacity:1;stroke:#220b3f;stroke-width:0.02430031;stroke-miterlimit:4;stroke-dasharray:none;stroke-dashoffset:0;stroke-opacity:1"
         id="rect1098"
         width="0.084061526"
         height="0.27159816"
         x="2.1275127"
         y="0.50262743"
         rx="0.028617302"
         ry="0.016761078" />
      <rect
         style="display:inline;opacity:1;fill:none;fill-opacity:1;stroke:#3d134f;stroke-width:0.0243003;stroke-miterlimit:4;stroke-dasharray:none;stroke-dashoffset:0;stroke-opacity:1"
         id="rect1100"
         width="0.084061526"
         height="0.18648414"
         x="2.1275127"
         y="0.54555649"
         rx="0.027435821"
         ry="0.028640039" />
      <rect
         style="display:inline;opacity:1;fill:none;fill-opacity:1;stroke:#3d134f;stroke-width:0.02430031;stroke-miterlimit:4;stroke-dasharray:none;stroke-dashoffset:0;stroke-opacity:1"
         id="rect1102"
         width="0.08425916"
         height="0.1028415"
         x="2.127315"
         y="0.58555943"
         rx="0.025677241"
         ry="0.025697622" />
      <rect
         style="display:inline;opacity:1;fill:none;fill-opacity:1;stroke:#cd7bf3;stroke-width:0.02430031;stroke-miterlimit:4;stroke-dasharray:none;stroke-dashoffset:0;stroke-opacity:1"
         id="rect1104"
         width="0.067711227"
         height="0.0092265485"
         x="2.1371839"
         y="0.63137823"
         rx="0.015406347"
         ry="0.0055972361" />
      <path
         style="display:inline;fill:none;stroke:#cd7bf3;stroke-width:0.02430031;stroke-linecap:round;stroke-linejoin:miter;stroke-miterlimit:4;stroke-dasharray:none;stroke-opacity:1"
         d="M 2.1860486,0.52569399 V 0.76558482"
         id="path1106" />
      <ellipse
         ry="0.0046132845"
         rx="0.00423194"
         style="display:inline;opacity:1;fill:#cd7bf3;fill-opacity:1;stroke:#cd7bf3;stroke-width:0.01361434;stroke-linecap:round;stroke-miterlimit:4;stroke-dasharray:none;stroke-dashoffset:0;stroke-opacity:1"
         id="ellipse1108"
         cx="2.1731246"
         cy="0.49014738" />
      <rect
         style="display:inline;opacity:1;fill:none;fill-opacity:1;stroke:#220b3f;stroke-width:0.02445444;stroke-miterlimit:4;stroke-dasharray:none;stroke-dashoffset:0;stroke-opacity:1"
         id="rect1130"
         width="0.084638774"
         height="0.33971611"
         x="1.7108279"
         y="0.46329877"
         ry="0.02613329"
         rx="0.0275154" />
      <rect
         rx="0.026708856"
         ry="0.026133388"
         y="0.46329871"
         x="2.1268764"
         height="0.33971617"
         width="0.084638797"
         id="rect1140"
         style="display:inline;opacity:1;fill:none;fill-opacity:1;stroke:#220b3f;stroke-width:0.02445444;stroke-miterlimit:4;stroke-dasharray:none;stroke-dashoffset:0;stroke-opacity:1" />
      <rect
         style="display:inline;opacity:1;fill:none;fill-opacity:1;stroke:#220b3f;stroke-width:0.02445444;stroke-miterlimit:4;stroke-dasharray:none;stroke-dashoffset:0;stroke-opacity:1"
         id="rect1152"
         width="0.12631209"
         height="0.41887799"
         x="1.899127"
         y="0.4926286"
         ry="0.055823054"
         rx="0.055741437" />
      <path
         style="display:inline;opacity:1;fill:#3d134f;fill-opacity:1;stroke:none;stroke-width:0.02445444;stroke-linecap:butt;stroke-linejoin:miter;stroke-miterlimit:4;stroke-dasharray:none;stroke-opacity:1"
         d="m 1.9968143,0.39933765 c 0.018233,0.004534 0.04333,0.0199474 0.056234,0.03249 0.026893,-0.0335461 0.089653,-0.0705659 0.1483968,-0.0868723 v -0.0278117 l -0.0625,-4.8823e-4 h -0.354167 l -0.0625,4.8823e-4 v 0.0278117 c 0.058744,0.0163064 0.1215039,0.0533262 0.1483968,0.0868723 0.012903,-0.0125425 0.038,-0.0279557 0.056234,-0.03249 z"
         id="path1120" />
      <path
         style="display:inline;opacity:1;fill:#3d134f;fill-opacity:1;stroke:none;stroke-width:0.02445444;stroke-linecap:butt;stroke-linejoin:miter;stroke-miterlimit:4;stroke-dasharray:none;stroke-opacity:1"
         d="m 1.9618644,0.20486217 c -0.0625,0.0597127 -0.1770833,0.11179607 -0.1770833,0.11179607 0,0 0.1145835,0.0520833 0.1770833,0.11179606 0.0625,-0.0597127 0.1770833,-0.11179606 0.1770833,-0.11179606 0,0 -0.1145835,-0.0520834 -0.1770833,-0.11179607 z"
         id="path947" />
      <path
         style="display:inline;opacity:1;fill:#f4d5fb;fill-opacity:1;stroke:none;stroke-width:0.01361434;stroke-linecap:butt;stroke-linejoin:miter;stroke-miterlimit:4;stroke-dasharray:none;stroke-opacity:1"
         d="m 1.784781,0.31665824 0.1004693,-0.054435 0.076622,0.0544274 -0.076633,0.0544356 z"
         id="path1155" />
      <path
         style="display:inline;opacity:1;fill:#ffffff;fill-opacity:1;stroke:none;stroke-width:0.01359294px;stroke-linecap:butt;stroke-linejoin:miter;stroke-opacity:1"
         d="m 2.0384871,0.26222867 -0.076626,0.0544296 0.076637,0.0544226 0.1004496,-0.0544226 z"
         id="path1157" />
      <path
         style="display:inline;opacity:1;fill:#854797;fill-opacity:1;stroke:none;stroke-width:0.02445444;stroke-linecap:butt;stroke-linejoin:miter;stroke-miterlimit:4;stroke-dasharray:none;stroke-opacity:1"
         d="M 1.9421907,-0.10000842 C 1.7256324,0.01810197 1.5660003,0.16512829 1.5660003,0.16512829 c 0.065743,0.0657772 0.121025,0.10711999 0.1720386,0.12379964 0,0 0.08987,-0.10245678 0.2041518,-0.15100097 z"
         id="path1185" />
      <path
         style="display:inline;opacity:1;fill:#3d134f;fill-opacity:1;stroke:none;stroke-width:0.02445444;stroke-linecap:butt;stroke-linejoin:miter;stroke-miterlimit:4;stroke-dasharray:none;stroke-opacity:1"
         d="M 1.5548413,0.19770072 V 0.43219779 L 1.7222811,0.43124154 V 0.31714652 C 1.6609264,0.29290099 1.6019422,0.24669927 1.5548413,0.19770072 Z"
         id="path962" />
      <path
         style="display:inline;opacity:1;fill:#cd7bf3;fill-opacity:1;stroke:none;stroke-width:0.02445444;stroke-linecap:butt;stroke-linejoin:miter;stroke-miterlimit:4;stroke-dasharray:none;stroke-opacity:1"
         d="m 1.9815381,-0.10000842 c 0.2165583,0.11811039 0.3761903,0.2651367 0.3761903,0.2651367 -0.065743,0.0657772 -0.1210249,0.10712 -0.1720385,0.12379964 0,0 -0.08987,-0.10245677 -0.2041518,-0.15100097 z"
         id="path1181" />
      <path
         style="display:inline;opacity:1;fill:#854797;fill-opacity:1;stroke:none;stroke-width:0.02445444;stroke-linecap:butt;stroke-linejoin:miter;stroke-miterlimit:4;stroke-dasharray:none;stroke-opacity:1"
         d="M 2.3688875,0.19770072 V 0.43219781 L 2.2014477,0.43124151 V 0.31714647 c 0.061355,-0.0242455 0.1203389,-0.0704472 0.1674398,-0.11944575 z"
         id="path1030" />
      <path
         style="display:inline;opacity:1;fill:#fefbff;fill-opacity:1;stroke:none;stroke-width:0.01361434;stroke-linecap:butt;stroke-linejoin:miter;stroke-miterlimit:4;stroke-dasharray:none;stroke-opacity:1"
         d="m 1.8852449,0.26221488 -0.03064,0.0166016 0.1017456,0.0339152 z"
         id="path1247" />
      <path
         style="display:inline;opacity:1;fill:#f4d5fb;fill-opacity:1;stroke:none;stroke-width:0.01359294px;stroke-linecap:butt;stroke-linejoin:miter;stroke-opacity:1"
         d="m 1.9638582,0.31523408 -0.00199,0.001424 0.07664,0.054423 0.03538,-0.019165 z"
         id="path1252-9" />
      <path
         style="display:inline;opacity:1;fill:#854797;fill-opacity:1;stroke:none;stroke-width:0.01359294px;stroke-linecap:butt;stroke-linejoin:miter;stroke-opacity:1"
         d="m 1.5548413,0.19770072 -6.511e-4,0.14204915 c 0,0 0.040989,0.0780225 0.1224366,0.0323893 -4.79e-5,-7.396e-5 -9.48e-5,-1.5011e-4 -1.424e-4,-2.2375e-4 -0.047535,0.0197249 -0.08957,0.006944 -0.1216431,-0.0647176 z"
         id="path1232-7" />
      <path
         style="display:inline;opacity:1;fill:#3d134f;fill-opacity:1;stroke:none;stroke-width:0.01359294px;stroke-linecap:butt;stroke-linejoin:miter;stroke-opacity:1"
         d="m 2.2014477,0.31714647 0.047302,-0.022182 9.209e-4,0.13745646 -0.048223,-0.001181 z"
         id="path1236-3" />
      <path
         style="display:inline;opacity:1;fill:#cd7bf3;fill-opacity:1;stroke:none;stroke-width:0.01359294px;stroke-linecap:butt;stroke-linejoin:miter;stroke-opacity:1"
         d="m 2.2474834,0.29504938 c 0.040883,-0.0253927 0.050127,-0.0351655 0.1214041,-0.0973487 v 0.13237098 c -0.05295,0.0367763 -0.1017972,0.0374496 -0.1214041,-0.0350223 z"
         id="path1234" />
      <path
         style="display:inline;opacity:1;fill:#854797;fill-opacity:1;stroke:none;stroke-width:0.01359294px;stroke-linecap:butt;stroke-linejoin:miter;stroke-opacity:1"
         d="m 1.9815381,0.0851623 c 0.075098,0.0346572 0.2631073,0.0970892 0.2624336,0.17539334 l -0.058282,0.0283723 C 2.086843,0.19982639 2.0715545,0.17684675 1.9815381,0.13792695 Z"
         id="path1238-6" />
      <path
         style="display:inline;opacity:1;fill:#3d134f;fill-opacity:1;stroke:none;stroke-width:0.01359294px;stroke-linecap:butt;stroke-linejoin:miter;stroke-opacity:1"
         d="m 1.9815381,0.0851623 v 0.0527646 c 0.011223,-0.0214838 0.011778,-0.0380601 0.1229368,4.2281e-4 z"
         id="path1240-1" />
      <path
         style="display:inline;opacity:1;fill:none;stroke:#ffffff;stroke-width:0.01359294px;stroke-linecap:butt;stroke-linejoin:miter;stroke-opacity:1"
         d="m 1.8454002,0.28955879 0.1049749,0.0387259"
         id="path1276" />
      <path
         style="display:inline;opacity:1;fill:#854797;fill-opacity:1;stroke:none;stroke-width:0.01359294px;stroke-linecap:butt;stroke-linejoin:miter;stroke-opacity:1"
         d="m 2.2014449,0.31714363 v 0.0278117 l -0.072418,0.0293056 -0.057122,-0.0230046 0.067043,-0.034598 z"
         id="path1278" />
      <path
         style="display:inline;opacity:1;fill:#854797;fill-opacity:1;stroke:none;stroke-width:0.01359294px;stroke-linecap:butt;stroke-linejoin:miter;stroke-opacity:1"
         d="m 1.9618644,0.20486217 0.076623,0.0573665 -0.030265,0.0232885 -0.084397,-0.0504718 z"
         id="path1280" />
      <path
         style="display:inline;opacity:1;fill:#3d134f;fill-opacity:1;stroke:none;stroke-width:0.01359294px;stroke-linecap:butt;stroke-linejoin:miter;stroke-opacity:1"
         d="M 1.8637073,0.09511549 C 1.7058319,0.17327155 1.6057095,0.23235998 1.6516363,0.24108017 l 0.086403,0.0478477 0.1103955,-0.0975025 z"
         id="path909-2" />
      <path
         style="display:inline;opacity:1;fill:#cd7bf3;fill-opacity:1;stroke:none;stroke-width:0.01359294px;stroke-linecap:butt;stroke-linejoin:miter;stroke-opacity:1"
         d="M 1.9421907,-0.1000084 1.6402526,0.10244611 c 0,0 0.1768365,-0.10565903 0.2161486,-0.060436 C 1.8939583,0.08521431 1.808003,0.2271349 1.808003,0.2271349 L 1.9421907,0.137927 Z"
         id="path1187" />
      <path
         style="display:inline;opacity:1;fill:none;fill-opacity:1;stroke:#220b3f;stroke-width:0.02445444;stroke-linecap:butt;stroke-linejoin:miter;stroke-miterlimit:4;stroke-dasharray:none;stroke-opacity:1"
         d="m 1.9618644,0.20486217 c -0.0625,0.0597127 -0.1770833,0.11179607 -0.1770833,0.11179607 0,0 0.1145835,0.0520833 0.1770833,0.11179607 0.0625,-0.0597127 0.1770833,-0.11179607 0.1770833,-0.11179607 0,0 -0.1145834,-0.0520834 -0.1770833,-0.11179607 z"
         id="path947-7" />
      <path
         style="display:inline;opacity:1;fill:none;fill-opacity:1;stroke:#220b3f;stroke-width:0.02445444;stroke-linecap:butt;stroke-linejoin:miter;stroke-miterlimit:4;stroke-dasharray:none;stroke-opacity:1"
         d="m 1.9421907,-0.10000843 c -0.2165582,0.1181104 -0.3761904,0.26513671 -0.3761904,0.26513671 0.065743,0.0657772 0.121025,0.10712 0.1720386,0.12379969 0,0 0.08987,-0.10245682 0.2041518,-0.15100099 z"
         id="path1185-5" />
      <path
         style="display:inline;opacity:1;fill:none;fill-opacity:1;stroke:#220b3f;stroke-width:0.02445444;stroke-linecap:butt;stroke-linejoin:miter;stroke-miterlimit:4;stroke-dasharray:none;stroke-opacity:1"
         d="m 1.5548413,0.19770072 v 0.23449709 l 0.1674398,-9.563e-4 V 0.31714655 C 1.6609264,0.292901 1.6019422,0.24669927 1.5548413,0.19770072 Z"
         id="path962-3" />
      <path
         style="display:inline;opacity:1;fill:none;fill-opacity:1;stroke:#220b3f;stroke-width:0.02445444;stroke-linecap:butt;stroke-linejoin:miter;stroke-miterlimit:4;stroke-dasharray:none;stroke-opacity:1"
         d="m 1.9815381,-0.10000843 c 0.2165583,0.1181104 0.3761903,0.26513671 0.3761903,0.26513671 -0.065743,0.0657772 -0.1210249,0.10712 -0.1720385,0.12379964 0,0 -0.08987,-0.10245677 -0.2041518,-0.15100097 z"
         id="path1181-5" />
      <path
         style="display:inline;opacity:1;fill:none;fill-opacity:1;stroke:#220b3f;stroke-width:0.02445444;stroke-linecap:butt;stroke-linejoin:miter;stroke-miterlimit:4;stroke-dasharray:none;stroke-opacity:1"
         d="m 2.3688875,0.19770072 v 0.23449709 l -0.1674398,-9.563e-4 v -0.114095 c 0.061355,-0.0242455 0.1203389,-0.0704473 0.1674398,-0.11944579 z"
         id="path1030-6" />
      <g
         id="g955"
         transform="matrix(0.03937008,0,0,0.03937008,1.2863227,-0.35022497)"
         style="display:inline;opacity:1;stroke:#220b3f;stroke-width:0.62114263;stroke-miterlimit:4;stroke-dasharray:none;stroke-opacity:1">
        <path
           style="fill:none;stroke:#220b3f;stroke-width:0.62114263;stroke-linecap:butt;stroke-linejoin:miter;stroke-miterlimit:4;stroke-dasharray:none;stroke-opacity:1"
           d="m 19.153202,15.522067 -3.988473,2.833158"
           id="path951" />
        <path
           id="path949"
           d="m 15.164729,15.522067 3.988473,2.833158"
           style="fill:none;stroke:#220b3f;stroke-width:0.62114263;stroke-linecap:butt;stroke-linejoin:miter;stroke-miterlimit:4;stroke-dasharray:none;stroke-opacity:1" />
      </g>
      <path
         style="display:inline;opacity:1;fill:none;fill-opacity:1;stroke:#220b3f;stroke-width:0.02445444;stroke-linecap:butt;stroke-linejoin:miter;stroke-miterlimit:4;stroke-dasharray:none;stroke-opacity:1"
         d="m 1.7847811,0.31665824 -0.0625,4.8823e-4 v 0.0278117 c 0.058744,0.0163064 0.1215038,0.0533273 0.1483968,0.0868734 0.012885,-0.0125249 0.037926,-0.0279123 0.056152,-0.0324707 -0.062669,-0.0465578 -0.1420492,-0.0827026 -0.1420488,-0.0827026 z m 0.3541666,0 c 0,0 -0.07938,0.0361448 -0.1420491,0.0827026 0.018227,0.004558 0.043267,0.0199458 0.056152,0.0324707 0.026893,-0.0335461 0.089653,-0.070567 0.1483968,-0.0868734 v -0.0278117 z"
         id="path1120-2" />
    </g>
  </g>
</svg>
