<?xml version="1.0" encoding="UTF-8" standalone="no"?>
<svg
   xmlns:dc="http://purl.org/dc/elements/1.1/"
   xmlns:cc="http://creativecommons.org/ns#"
   xmlns:rdf="http://www.w3.org/1999/02/22-rdf-syntax-ns#"
   xmlns:svg="http://www.w3.org/2000/svg"
   xmlns="http://www.w3.org/2000/svg"
   enable-background="new"
   width="1in"
   height="1in"
   viewBox="0 0 1 1"
   version="1.1"
   id="svg827">
  <defs
     id="defs821" />
  <metadata
     id="metadata824">
    <rdf:RDF>
      <cc:Work
         rdf:about="">
        <dc:format>image/svg+xml</dc:format>
        <dc:type
           rdf:resource="http://purl.org/dc/dcmitype/StillImage" />
        <dc:title></dc:title>
      </cc:Work>
    </rdf:RDF>
  </metadata>
  <g
     style="display:inline"
     id="layer3">
    <g
       id="layer1"
       transform="translate(0,-271.59999)"
       style="display:inline">
      <path
         style="fill:#c7c5c9;fill-opacity:1;stroke:#c7c5c9;stroke-width:0.00685205px;stroke-linecap:butt;stroke-linejoin:miter;stroke-opacity:1"
         d="m 0.50000001,272.1 -0.24705443,0.42791 h 0.49410889 z"
         id="path14563" />
      <path
         style="fill:#d1cdce;fill-opacity:1;stroke:#d1cdce;stroke-width:0.00685205px;stroke-linecap:butt;stroke-linejoin:miter;stroke-opacity:1"
         d="M 0.50000007,272.1 0.74705459,272.52791 0.99410894,272.1 Z"
         id="path14565" />
      <path
         style="fill:#d1cdce;fill-opacity:1;stroke:#d1cdce;stroke-width:0.00685205px;stroke-linecap:butt;stroke-linejoin:miter;stroke-opacity:1"
         d="M 0.50000007,272.1 0.74705447,271.67208 0.99410894,272.1 Z"
         id="path14567" />
      <path
         style="fill:#cecace;fill-opacity:1;stroke:#cecace;stroke-width:0.00685205px;stroke-linecap:butt;stroke-linejoin:miter;stroke-opacity:1"
         d="M 0.50000007,272.1 0.25294558,271.67208 H 0.74705447 Z"
         id="path14569" />
      <path
         style="fill:#cac8cc;fill-opacity:1;stroke:#cac8cc;stroke-width:0.00685205px;stroke-linecap:butt;stroke-linejoin:miter;stroke-opacity:1"
         d="M 0.00589127,272.09999 0.25294558,271.67208 0.50000007,272.1 Z"
         id="path14573" />
      <path
         style="fill:#cac8cc;fill-opacity:1;stroke:#cac8cc;stroke-width:0.00685205px;stroke-linecap:butt;stroke-linejoin:miter;stroke-opacity:1"
         d="M 0.00589116,272.1 0.25294561,272.52791 0.50000007,272.1 Z"
         id="path14571" />
    </g>
    <g
       id="layer2"
       style="display:inline"
       transform="translate(0,1.7436806e-6)">
      <path
         style="display:inline;opacity:1;fill:none;fill-opacity:1;stroke:#aeabb4;stroke-width:0.01020363;stroke-linecap:round;stroke-miterlimit:4;stroke-dasharray:none;stroke-dashoffset:0;stroke-opacity:1"
         d="M 0.7470545,0.07209 0.99410894,0.50001 0.7470545,0.92792 H 0.25294561 L 0.00589118,0.50001 0.25294561,0.07209 Z"
         id="path3896-3-5-3" />
    </g>
  </g>
  <g
     id="g1326"
     style="display:inline">
    <path
       id="path1314"
       transform="scale(0.01041667)"
       d="m 62.271484,23.283203 -5.628906,9.748047 7.083984,5.470703 H 53.484375 L 48,48.001953 h 6.238281 l 15.207031,-5.958984 v 5.958984 H 78.0625 V 36.810547 l -8.617188,-7.724609 v 9.416015 h -1.578124 l -9.689454,-7.474609 9.28711,-4.966797 z"
       style="display:inline;fill:#aba5a6;fill-opacity:1;stroke:none;stroke-width:0.6577968px;stroke-linecap:butt;stroke-linejoin:miter;stroke-opacity:1" />
    <path
       id="path1316"
       transform="scale(0.01041667)"
       d="m 48,15.652344 -14.271484,7.630859 5.628906,9.748047 0.90625,-0.699219 L 48,36.46875 l 7.736328,-4.136719 0.90625,0.699219 5.628906,-9.748047 z m -5.484375,22.849609 5.484375,9.5 5.484375,-9.5 H 48 Z"
       style="display:inline;fill:#a6a0a6;fill-opacity:1;stroke:none;stroke-width:0.6577968px;stroke-linecap:butt;stroke-linejoin:miter;stroke-opacity:1" />
    <path
       id="path1318"
       transform="scale(0.01041667)"
       d="m 33.728516,23.283203 -5.19336,2.777344 9.28711,4.966797 -9.689454,7.474609 H 26.554688 V 29.085938 L 17.9375,36.810547 V 48 l 8.617188,0.002 V 42.043016 L 41.759766,48.002 H 48 l -5.484375,-9.5 H 32.273438 l 7.083984,-5.470703 z"
       style="display:inline;fill:#a09da3;fill-opacity:1;stroke:none;stroke-width:0.6577968px;stroke-linecap:butt;stroke-linejoin:miter;stroke-opacity:1" />
    <g
       style="fill:#a09da3;fill-opacity:1"
       id="g1422">
      <path
         style="display:inline;fill:#a09da3;fill-opacity:1;stroke:none;stroke-width:0.6577968px;stroke-linecap:butt;stroke-linejoin:miter;stroke-opacity:1"
         d="M 42.089844,58.238281 32.4375,63.9375 37.183594,66.738281 38.708984,64.095703 38.4375,63.9375 38.986328,63.615234 Z"
         transform="scale(0.01041667)"
         id="path1359" />
      <path
         style="display:inline;fill:#a09da3;fill-opacity:1;stroke:none;stroke-width:0.6577968px;stroke-linecap:butt;stroke-linejoin:miter;stroke-opacity:1"
         d="m 17.9375,48.001953 v 21.425781 l 8.617188,7.72461 V 51.447266 H 46.011719 L 48,48.001953 h -6.238281 l 2.595703,1.017578 H 26.554688 v -1.017578 z m 12.775391,5.496094 c -0.606628,0 -1.095705,0.486991 -1.095703,1.091797 v 20.08789 c 0,0.604808 0.489075,1.091797 1.095703,1.091797 h 1.255859 l 3.119141,-5.402343 V 54.589844 c 0,-0.604806 -0.489078,-1.091797 -1.095703,-1.091797 z"
         transform="scale(0.01041667)"
         id="path1394" />
    </g>
    <g
       style="fill:#9b989e;fill-opacity:1"
       id="g1418">
      <path
         style="display:inline;fill:#9b989e;fill-opacity:1;stroke:none;stroke-width:0.6577968px;stroke-linecap:butt;stroke-linejoin:miter;stroke-opacity:1"
         d="M 48,54.75 42.089844,58.238281 38.986328,63.615234 48,58.3125 l 9.013672,5.302734 -3.103516,-5.376953 z m -9.291016,9.345703 -1.52539,2.642578 L 48,73.125 58.816406,66.738281 57.291016,64.095703 48,69.5625 Z"
         transform="scale(0.01041667)"
         id="path1310" />
      <path
         style="display:inline;fill:#9b989e;fill-opacity:1;stroke:none;stroke-width:0.6577968px;stroke-linecap:butt;stroke-linejoin:miter;stroke-opacity:1"
         d="m 48,48.001953 -1.988281,3.445313 h 3.976562 z M 35.087891,70.367188 31.96875,75.769531 h 2.023438 c 0.606625,0 1.095703,-0.486989 1.095703,-1.091797 z m 25.857421,0.05664 v 4.253906 c 0,0.604808 0.487125,1.091797 1.09375,1.091797 h 1.992188 z"
         transform="scale(0.01041667)"
         id="path1397" />
    </g>
    <g
       style="fill:#aba5a6;fill-opacity:1"
       id="g1426">
      <path
         style="display:inline;fill:#aba5a6;fill-opacity:1;stroke:none;stroke-width:0.6577968px;stroke-linecap:butt;stroke-linejoin:miter;stroke-opacity:1"
         d="m 53.910156,58.238281 3.103516,5.376953 0.548828,0.322266 -0.271484,0.158203 1.52539,2.642578 L 63.5625,63.9375 Z"
         transform="scale(0.01041667)"
         id="path1312" />
      <path
         style="display:inline;fill:#aba5a6;fill-opacity:1;stroke:none;stroke-width:0.6577968px;stroke-linecap:butt;stroke-linejoin:miter;stroke-opacity:1"
         d="m 48,48.001953 1.988281,3.445313 H 69.445312 V 77.152344 L 78.0625,69.427734 V 48.001953 h -8.617188 v 1.017578 H 51.642578 l 2.595703,-1.017578 z m 14.039062,5.496094 c -0.606625,0 -1.09375,0.486991 -1.09375,1.091797 v 15.833984 l 3.085938,5.345703 h 1.304688 c 0.606625,0 1.095703,-0.486989 1.095703,-1.091797 v -20.08789 c 0,-0.604806 -0.489078,-1.091797 -1.095703,-1.091797 z"
         transform="scale(0.01041667)"
         id="path1402" />
    </g>
  </g>
</svg>
