<svg xmlns="http://www.w3.org/2000/svg" width="52" height="52" viewBox="-10 -10 52 52">
  <g transform="translate(2 6)">
    <path stroke="blue" stroke-width="0.5" fill="none"
          d="M 12.50147,27.654979 9.0257664,26.328327 9.0117514,24.094098 8.9977365,21.859869 7.5121533,21.302303 C 6.6950826,20.995642 6.0171101,20.744568 6.0055478,20.744361 c -0.011562,-2.06e-4 -0.021022,0.27712 -0.021022,0.616282 V 21.9773 H 3.9944046 2.0042837 V 13.988787 6.0002735 H 3.9943194 5.984355 l 0.00709,4.5058015 0.00709,4.505802 1.6817923,0.846434 c 0.9249857,0.46554 1.6890912,0.847096 1.6980123,0.847904 0.00892,8.07e-4 0.063756,-0.121512 0.121855,-0.271822 C 9.7787,15.713879 10.250474,14.956779 10.825248,14.307961 l 0.176624,-0.199377 V 11.554027 8.9994696 h 0.490523 0.490523 V 11.12974 c 0,1.171648 0.0062,2.13027 0.01373,2.13027 0.0076,0 0.105305,-0.05871 0.217231,-0.130476 0.902804,-0.578831 1.96681,-0.959062 3.006491,-1.074394 0.384759,-0.04268 1.279885,-0.03478 1.659334,0.01464 0.99648,0.129797 2.010753,0.492947 2.83946,1.016642 l 0.266284,0.168276 0.0072,-2.127615 0.0072,-2.1276154 h 0.490348 0.490347 v 2.5501684 2.550168 l 0.199137,0.217781 c 0.426147,0.466048 0.801235,1.02007 1.094599,1.616772 0.09163,0.186374 0.175433,0.341314 0.186231,0.34431 0.0108,0.003 0.814278,-0.394327 1.785513,-0.882941 l 1.765882,-0.888389 0.0071,-4.253533 0.0071,-4.2535325 h 1.976016 1.976016 V 13.988787 21.9773 h -1.976106 -1.976106 v -0.798852 c 0,-0.620188 -0.0078,-0.798937 -0.03504,-0.799237 -0.01927,-2.24e-4 -0.700328,0.248822 -1.51346,0.55341 l -1.478422,0.553794 -0.0072,2.419806 -0.0072,2.419806 -3.489719,1.32936 c -1.919345,0.731148 -3.496026,1.328659 -3.503734,1.327802 -0.0077,-8.58e-4 -1.578081,-0.598551 -3.489719,-1.32821 z M 13.006008,16.49756 c 0.308782,-0.122677 0.571791,-0.290587 0.789404,-0.503971 0.316865,-0.310709 0.333621,-0.466498 0.07842,-0.729083 -0.407207,-0.418986 -1.069334,-0.405893 -1.466805,0.029 -0.08525,0.09328 -0.163442,0.215907 -0.200276,0.314096 -0.122396,0.32627 -0.02965,0.851252 0.168588,0.954317 0.108176,0.05624 0.402789,0.02617 0.630672,-0.06436 z m 6.626415,0.05733 c 0.132425,-0.06848 0.211922,-0.289484 0.212439,-0.590587 3.96e-4,-0.229578 -0.008,-0.270055 -0.09152,-0.439643 -0.17818,-0.361934 -0.498473,-0.56084 -0.903107,-0.56084 -0.262102,0 -0.477117,0.07627 -0.654033,0.231997 -0.162878,0.143371 -0.242923,0.273916 -0.242923,0.396183 0,0.454135 1.26272,1.178231 1.679144,0.96289 z"
            transform="translate(-2,-6)"/>
  </g>
</svg>
