<?xml version="1.0" encoding="UTF-8" standalone="no"?>
<svg
   xmlns:dc="http://purl.org/dc/elements/1.1/"
   xmlns:cc="http://creativecommons.org/ns#"
   xmlns:rdf="http://www.w3.org/1999/02/22-rdf-syntax-ns#"
   xmlns:svg="http://www.w3.org/2000/svg"
   xmlns="http://www.w3.org/2000/svg"
   enable-background="new"
   width="1in"
   height="1in"
   viewBox="0 0 1 1"
   version="1.1"
   id="svg827">
  <defs
     id="defs821" />
  <metadata
     id="metadata824">
    <rdf:RDF>
      <cc:Work
         rdf:about="">
        <dc:format>image/svg+xml</dc:format>
        <dc:type
           rdf:resource="http://purl.org/dc/dcmitype/StillImage" />
        <dc:title></dc:title>
      </cc:Work>
    </rdf:RDF>
  </metadata>
  <g
     style="display:inline"
     id="layer3">
    <g
       id="layer1"
       transform="translate(0,-271.59999)"
       style="display:inline">
      <path
         style="fill:#c7c5c9;fill-opacity:1;stroke:#c7c5c9;stroke-width:0.00685205px;stroke-linecap:butt;stroke-linejoin:miter;stroke-opacity:1"
         d="m 0.50000001,272.1 -0.24705443,0.42791 h 0.49410889 z"
         id="path14563" />
      <path
         style="fill:#d1cdce;fill-opacity:1;stroke:#d1cdce;stroke-width:0.00685205px;stroke-linecap:butt;stroke-linejoin:miter;stroke-opacity:1"
         d="M 0.50000007,272.1 0.74705459,272.52791 0.99410894,272.1 Z"
         id="path14565" />
      <path
         style="fill:#d1cdce;fill-opacity:1;stroke:#d1cdce;stroke-width:0.00685205px;stroke-linecap:butt;stroke-linejoin:miter;stroke-opacity:1"
         d="M 0.50000007,272.1 0.74705447,271.67208 0.99410894,272.1 Z"
         id="path14567" />
      <path
         style="fill:#cecace;fill-opacity:1;stroke:#cecace;stroke-width:0.00685205px;stroke-linecap:butt;stroke-linejoin:miter;stroke-opacity:1"
         d="M 0.50000007,272.1 0.25294558,271.67208 H 0.74705447 Z"
         id="path14569" />
      <path
         style="fill:#cac8cc;fill-opacity:1;stroke:#cac8cc;stroke-width:0.00685205px;stroke-linecap:butt;stroke-linejoin:miter;stroke-opacity:1"
         d="M 0.00589127,272.09999 0.25294558,271.67208 0.50000007,272.1 Z"
         id="path14573" />
      <path
         style="fill:#cac8cc;fill-opacity:1;stroke:#cac8cc;stroke-width:0.00685205px;stroke-linecap:butt;stroke-linejoin:miter;stroke-opacity:1"
         d="M 0.00589116,272.1 0.25294561,272.52791 0.50000007,272.1 Z"
         id="path14571" />
    </g>
    <g
       id="layer2"
       style="display:inline"
       transform="translate(0,1.7436806e-6)">
      <path
         style="display:inline;opacity:1;fill:none;fill-opacity:1;stroke:#aeabb4;stroke-width:0.01020363;stroke-linecap:round;stroke-miterlimit:4;stroke-dasharray:none;stroke-dashoffset:0;stroke-opacity:1"
         d="M 0.7470545,0.07209 0.99410894,0.50001 0.7470545,0.92792 H 0.25294561 L 0.00589118,0.50001 0.25294561,0.07209 Z"
         id="path3896-3-5-3" />
    </g>
  </g>
  <g
     style="display:inline"
     id="layer6">
    <path
       id="path14563-3-3"
       transform="scale(0.01041667)"
       d="m 39.882812,62.0625 -2.166015,3.75 h 20.566406 l -2.166015,-3.75 z"
       style="display:inline;fill:#9b989e;fill-opacity:1;stroke:none;stroke-width:0.6577968px;stroke-linecap:butt;stroke-linejoin:miter;stroke-opacity:1" />
    <path
       id="path14567-6-7"
       transform="scale(0.01041667)"
       d="m 64.548828,19.335938 -8.279297,14.341796 c 3.565027,1.427725 7.894629,3.364583 10.628907,5.3125 v 9.011719 h 7.308593 c -0.119553,-6.913507 -0.162734,-13.733784 0.25,-20.320312 -3.426018,-3.417005 -6.280886,-5.877967 -9.908203,-8.345703 z M 50.591797,43.513672 48,48.001953 h 6.802734 v -4.488281 z m 26.132812,3.769531 v 0.71875 h 1.441407 z"
       style="display:inline;fill:#aba5a6;fill-opacity:1;stroke:none;stroke-width:0.6577968px;stroke-linecap:butt;stroke-linejoin:miter;stroke-opacity:1" />
    <path
       id="path14569-2-5"
       transform="scale(0.01041667)"
       d="m 45.732422,11.095703 c -6.379313,3.368396 -10.705535,5.807602 -14.28125,8.240235 l 8.279297,14.341796 c 3.334124,-1.335252 6.001953,-2.226562 6.001953,-2.226562 z m 4.535156,0 v 20.355469 c 0,0 2.667829,0.89131 6.001953,2.226562 L 64.548828,19.335938 C 60.973112,16.903306 56.646887,14.464099 50.267578,11.095703 Z M 45.408203,43.513672 48,48.001953 50.591797,43.513672 Z"
       style="display:inline;fill:#a6a0a6;fill-opacity:1;stroke:none;stroke-width:0.6577968px;stroke-linecap:butt;stroke-linejoin:miter;stroke-opacity:1" />
    <path
       id="path14573-9-3"
       transform="scale(0.01041667)"
       d="m 31.451172,19.335938 c -3.627316,2.467736 -6.482184,4.928699 -9.908203,8.345703 0.412695,6.58591 0.369527,13.40552 0.25,20.318359 l 7.308593,0.002 v -9.011719 c 2.734278,-1.947917 7.06388,-3.884775 10.628907,-5.3125 z m 9.746094,24.177734 v 4.488281 H 48 L 45.408203,43.513672 Z M 19.275391,47.283203 17.835938,48 h 1.439453 z"
       style="display:inline;fill:#a09da3;fill-opacity:1;stroke:none;stroke-width:0.6577968px;stroke-linecap:butt;stroke-linejoin:miter;stroke-opacity:1" />
    <path
       id="path1455"
       transform="scale(0.01041667)"
       d="m 17.833984,48.001953 -1.582031,0.789063 v 7.539062 l 3.023438,1.507813 V 54.375 h 2.398437 c -0.06938,3.657833 -0.130859,7.325736 -0.130859,11.003906 l 7.558593,7.539063 V 54.375 h 12.095704 v 5.410156 L 46.458984,50.671875 46.486328,50.625 48,48.001953 H 41.197266 V 50.625 H 29.101562 v -2.623047 h -7.308593 c -0.01505,0.870341 -0.03213,1.750061 -0.04883,2.623047 h -2.46875 v -2.623047 z m 17.609375,7.355469 c -1.0232,0 -1.847656,0.870436 -1.847656,1.951172 V 62.0625 H 32.0625 v 3.75 h 1.533203 v 4.619141 c 0,0.57919 0.241863,1.09244 0.619141,1.449218 L 37.716797,65.8125 38.214844,64.951172 39.882812,62.0625 h -1.667968 v -4.753906 c 0,-1.080736 -0.824456,-1.951172 -1.847656,-1.951172 z"
       style="display:inline;fill:#a09da3;fill-opacity:1;stroke:none;stroke-width:0.6577968px;stroke-linecap:butt;stroke-linejoin:miter;stroke-opacity:1" />
    <path
       id="path1457"
       transform="scale(0.01041667)"
       d="m 48,48.001953 1.513672,2.623047 0.01758,0.03125 5.271484,9.128906 V 54.375 H 66.89844 v 18.542969 l 7.558593,-7.539063 c 0,-3.67817 -0.06148,-7.346074 -0.130859,-11.003906 h 2.398437 v 3.462891 l 3.023438,-1.507813 V 48.791016 L 78.166016,48.001953 H 76.724609 V 50.625 h -2.46875 c -0.0167,-0.872986 -0.03378,-1.752706 -0.04883,-2.623047 H 66.898438 V 50.625 H 54.802734 v -2.623047 z m 11.341797,7.355469 c -1.023201,0 -1.845703,0.870436 -1.845703,1.951172 V 62.0625 h -1.378906 l 1.378906,2.386719 v 0.002 l 0.787109,1.361328 3.388672,5.871094 c 0.270901,-0.339327 0.441406,-0.771507 0.441406,-1.251953 V 65.8125 H 63.9375 v -3.75 h -1.824219 v -4.753906 c 0,-1.080736 -0.824456,-1.951172 -1.847656,-1.951172 z"
       style="display:inline;fill:#aba5a6;fill-opacity:1;stroke:none;stroke-width:0.6577968px;stroke-linecap:butt;stroke-linejoin:miter;stroke-opacity:1" />
    <path
       id="path1459"
       transform="scale(0.01041667)"
       d="M 48,48.001953 41.197266,59.785156 V 76.6875 L 48,84.980469 54.802734,76.6875 V 59.785156 Z m 9.496094,16.449219 v 5.980469 c 0,1.080733 0.822502,1.951171 1.845703,1.951171 h 0.923828 c 0.56833,0 1.067777,-0.275252 1.40625,-0.699218 z m -19.28125,0.5 -4,6.929687 c 0.326699,0.308949 0.753672,0.501953 1.228515,0.501953 h 0.923829 c 1.0232,0 1.847656,-0.870438 1.847656,-1.951171 z"
       style="display:inline;fill:#9b989e;fill-opacity:1;stroke:none;stroke-width:0.6577968px;stroke-linecap:butt;stroke-linejoin:miter;stroke-opacity:1" />
    <path
       id="path1493"
       transform="scale(0.01041667)"
       d="m 46.486328,50.625 -2.166016,3.75 h 7.359376 l -2.166016,-3.75 z"
       style="display:inline;fill:#9b989e;fill-opacity:1;stroke:none;stroke-width:0.6577968px;stroke-linecap:butt;stroke-linejoin:miter;stroke-opacity:1" />
  </g>
</svg>
