<svg xmlns="http://www.w3.org/2000/svg" width="96" height="96" viewBox="-20 -20 96 96">
    <g fill="none" fill-rule="evenodd">
        <path fill="black" d="M19.277 41.968l7.091-1.379.453 2.328L16.107 45l-.33-1.7 5.008-11.37-6.946 1.35-.457-2.348 10.55-2.05.323 1.661-4.978 11.425zm12.407-9.42l5.397-.472.155 1.772-8.155.713-.113-1.294 4.627-8.088-5.287.462-.156-1.787 8.03-.702.11 1.265-4.608 8.13zm11.758-6.075h4.515v1.483h-6.821v-1.083l4.428-6.378h-4.422V19h6.717v1.058l-4.417 6.415z"/>
        <path fill="red" d="M14.593 38.645l7.918-1.539.505 2.6-11.963 2.325-.37-1.898 5.593-12.696-7.756 1.508-.51-2.622 11.78-2.29.361 1.856-5.558 12.756zm13.853-10.518l6.027-.527.173 1.979-9.106.796-.126-1.445 5.166-9.03-5.903.516-.174-1.996 8.965-.784.124 1.412-5.146 9.08zm13.13-6.782h5.04V23H39v-1.209l4.945-7.122h-4.938V13h7.5v1.181l-4.931 7.164z"/>
    </g>
</svg>
